<?xml version="1.0" encoding="UTF-8"?>
<svg xmlns="http://www.w3.org/2000/svg" version="1.1" xmlns:xlink="http://www.w3.org/1999/xlink" viewBox="0 0 2475.4 2676.8">
  <defs>
    <style>
      .cls-1 {
        fill: #d86c00;
        opacity: .4;
      }

      .cls-1, .cls-2, .cls-3 {
        isolation: isolate;
      }

      .cls-4 {
        fill: url(#linear-gradient-2);
      }

      .cls-5 {
        fill: #fff764;
      }

      .cls-6 {
        fill: #ffcb39;
      }

      .cls-2 {
        fill: #fff;
        opacity: .2;
      }

      .cls-7 {
        fill: url(#linear-gradient);
      }

      .cls-3 {
        fill: #af4b00;
        opacity: .6;
      }
    </style>
    <linearGradient id="linear-gradient" x1="-33.6" y1="2599" x2="1921.8" y2="826.7" gradientTransform="translate(0 2833.7) scale(1 -1)" gradientUnits="userSpaceOnUse">
      <stop offset="0" stop-color="#f2ca44"/>
      <stop offset=".4" stop-color="#f2c742"/>
      <stop offset=".6" stop-color="#f4c03d"/>
      <stop offset=".8" stop-color="#f7b334"/>
      <stop offset=".9" stop-color="#fba127"/>
      <stop offset="1" stop-color="#ff931e"/>
    </linearGradient>
    <linearGradient id="linear-gradient-2" x1="19736" y1="3.5" x2="21334.4" y2="3.5" gradientTransform="translate(19626.2 10513.2) rotate(-153.6) scale(1 -1)" gradientUnits="userSpaceOnUse">
      <stop offset="0" stop-color="#ffbe1d"/>
      <stop offset=".5" stop-color="#ffbb1d"/>
      <stop offset=".7" stop-color="#ffb41d"/>
      <stop offset=".8" stop-color="#ffa71d"/>
      <stop offset="1" stop-color="#ff951d"/>
      <stop offset="1" stop-color="#ff931e"/>
    </linearGradient>
  </defs>
  <!-- Generator: Adobe Illustrator 28.7.4, SVG Export Plug-In . SVG Version: 1.2.0 Build 166)  -->
  <g transform="scale(1) translate(0, -150)">
    <g id="Layer_1">
      <g id="_gold">
        <circle class="cls-7" cx="1232.6" cy="1382.4" r="917.1"/>
        <circle class="cls-1" cx="1231.6" cy="1383.2" r="917.1"/>
        <circle class="cls-4" cx="1232.6" cy="1382.4" r="799"/>
        <path class="cls-5" d="M1232.6,583.4c441.3,0,799,357.7,799,799s-357.7,799-799,799-799-357.7-799-799,357.7-799,799-799M1232.6,568.6c-109.8,0-216.4,21.5-316.8,64-96.9,41-183.9,99.7-258.7,174.4-74.7,74.7-133.4,161.8-174.4,258.7-42.4,100.3-64,206.9-64,316.8s21.5,216.4,64,316.8c41,96.9,99.7,183.9,174.4,258.7s161.8,133.4,258.7,174.4c100.3,42.4,206.9,64,316.8,64s216.4-21.5,316.8-64c96.9-41,183.9-99.7,258.7-174.4s133.4-161.8,174.4-258.7c42.4-100.3,64-206.9,64-316.8s-21.5-216.4-64-316.8c-41-96.9-99.7-183.9-174.4-258.7s-161.8-133.4-258.7-174.4c-100.3-42.4-206.9-64-316.8-64h0Z"/>
        <circle class="cls-6" cx="1229.6" cy="1387.2" r="746.8"/>
        <path class="cls-3" d="M1553.9,1431.9c-30.5-33.7-71.1-56-121.9-67v-4.5c35.3-15.1,62.9-38.6,83-70.7,20-32,30-68.6,30-109.6s-7.3-66.7-21.8-93.8c-14.5-27.1-36.5-48.8-65.9-65-27.2-15.1-56.3-25-87.4-29.7-18.6-2.8-42.6-4.8-71.7-5.9v-85.3c0-38.6-31.3-69.9-69.9-69.9h-10.4c-38.6,0-69.9,31.3-69.9,69.9v84.1h-181.7v841.6h181.7v79.9c0,38.6,31.3,69.9,69.9,69.9h10.4c38.6,0,69.9-31.3,69.9-69.9v-80.4c45-1.4,83.2-6.5,114.1-15.4,36.9-10.5,70.9-28.3,101.7-53.1,26.1-20.7,46.9-46.9,62.3-78.6,15.4-31.7,23.2-68.4,23.2-110.2s-15.3-102.8-45.8-136.5ZM1148.1,1138.8h14.3c36.7,0,64.4.3,83,.8,18.6.6,34.6,3.9,48.2,9.9,14.3,6.4,24.9,16.8,31.7,31.1,6.8,14.3,10.2,28.3,10.2,41.8s-3.1,34.7-9.4,48.6c-6.3,13.9-17.6,24.9-34.2,32.8-15.1,7.2-29.7,11.1-43.8,11.9-14.1.8-38.9,1.1-74.2,1.1h-25.9v-178ZM1374.5,1618.9c-8.6,16-22.3,28.2-41.1,36.5-21.3,9.4-42.3,14.5-62.9,15.3-20.6.8-57.7,1.1-111.4,1.1h-11v-210.8h38c36.7,0,66.1.3,87.9.8,21.9.6,39,3.3,51.5,8.2,20.6,7.5,36,18.7,46.3,33.4,10.3,14.7,15.4,35,15.4,61s-4.3,38.5-13,54.5Z"/>
        <path class="cls-5" d="M1553.9,1409.9c-30.5-33.7-71.1-56-121.9-67v-4.5c35.3-15.1,62.9-38.6,83-70.7,20-32,30-68.6,30-109.6s-7.3-66.7-21.8-93.8c-14.5-27.1-36.5-48.8-65.9-65-27.2-15.1-56.3-25-87.4-29.7-18.6-2.8-42.6-4.8-71.7-5.9v-85.3c0-38.6-31.3-69.9-69.9-69.9h-10.4c-38.6,0-69.9,31.3-69.9,69.9v84.1h-181.7v841.6h181.7v79.9c0,38.6,31.3,69.9,69.9,69.9h10.4c38.6,0,69.9-31.3,69.9-69.9v-80.4c45-1.4,83.2-6.5,114.1-15.4,36.9-10.5,70.9-28.3,101.7-53.1,26.1-20.7,46.9-46.9,62.3-78.6,15.4-31.7,23.2-68.4,23.2-110.2s-15.3-102.8-45.8-136.5ZM1148.1,1116.8h14.3c36.7,0,64.4.3,83,.8,18.6.6,34.6,3.9,48.2,9.9,14.3,6.4,24.9,16.8,31.7,31.1,6.8,14.3,10.2,28.3,10.2,41.8s-3.1,34.7-9.4,48.6c-6.3,13.9-17.6,24.9-34.2,32.8-15.1,7.2-29.7,11.1-43.8,11.9-14.1.8-38.9,1.1-74.2,1.1h-25.9v-178ZM1374.5,1596.9c-8.6,16-22.3,28.2-41.1,36.5-21.3,9.4-42.3,14.5-62.9,15.3-20.6.8-57.7,1.1-111.4,1.1h-11v-210.8h38c36.7,0,66.1.3,87.9.8,21.9.6,39,3.3,51.5,8.2,20.6,7.5,36,18.7,46.3,33.4,10.3,14.7,15.4,35,15.4,61s-4.3,38.5-13,54.5Z"/>
        <path class="cls-2" d="M521.4,1961.5l1625.6-650.5c-14.5-188.9-86.3-361.8-198-501.3L318.9,1462c16.2,188.6,89.5,360.9,202.5,499.5h0Z"/>
        <path class="cls-5" d="M2149.4,1398v-28.6h-119.1c-2.4-134.8-38.3-261.6-99.8-372.2l103.1-59.5-14.3-24.8-103.1,59.5c-67.3-111.5-161-205.3-272.5-272.6l59.5-103.1-24.8-14.3-59.5,103.1c-110.8-61.6-237.6-97.6-372.5-100v-119.1h-28.6v119.1c-134.8,2.4-261.6,38.3-372.3,99.9l-59.4-102.9-24.8,14.3,59.4,102.9c-111.6,67.3-205.4,161.2-272.7,272.8l-103.1-59.5-14.3,24.8,103.1,59.5c-61.5,110.7-97.4,237.4-99.8,372.2h-119.1v28.6h119.1c2.4,134.9,38.4,261.7,99.9,372.4l-103.5,59.7,14.3,24.8,103.5-59.8c67.3,111.4,160.9,205.1,272.3,272.4l-59.5,103.1,24.8,14.3,59.5-103.1c110.8,61.6,237.7,97.7,372.6,100v119.1h28.6v-119.1c134.8-2.4,261.6-38.3,372.2-99.8l59.4,103,24.8-14.3-59.5-103c111.6-67.4,205.5-161.2,272.8-272.9l102.9,59.4,14.3-24.8-102.9-59.4c61.5-110.7,97.4-237.4,99.8-372.1h119.1,0ZM1232.1,2153.5c-424.5,0-769.8-345.3-769.8-769.8s345.3-769.8,769.8-769.8,769.8,345.3,769.8,769.8-345.3,769.8-769.8,769.8h0Z"/>
      </g>
    </g>
  </g>
</svg>